<mxfile host="app.diagrams.net" agent="Mozilla/5.0 (Windows NT 10.0; Win64; x64) AppleWebKit/537.36 (KHTML, like Gecko) Chrome/127.0.0.0 Safari/537.36 Edg/127.0.0.0" version="24.7.7">
  <diagram name="第 1 页" id="5IphB8eHWTp-f-tykZL0">
    <mxGraphModel dx="353" dy="646" grid="1" gridSize="10" guides="1" tooltips="1" connect="1" arrows="1" fold="1" page="1" pageScale="1" pageWidth="827" pageHeight="1169" math="0" shadow="0">
      <root>
        <mxCell id="0" />
        <mxCell id="1" parent="0" />
        <mxCell id="j6y0PCUKK9EX1xHPbR5D-12" style="edgeStyle=orthogonalEdgeStyle;rounded=0;orthogonalLoop=1;jettySize=auto;html=1;exitX=0.5;exitY=1;exitDx=0;exitDy=0;entryX=0.5;entryY=0;entryDx=0;entryDy=0;" edge="1" parent="1" source="j6y0PCUKK9EX1xHPbR5D-1" target="j6y0PCUKK9EX1xHPbR5D-2">
          <mxGeometry relative="1" as="geometry" />
        </mxCell>
        <mxCell id="j6y0PCUKK9EX1xHPbR5D-1" value="控制器网络" style="ellipse;whiteSpace=wrap;html=1;fillColor=#fff2cc;strokeColor=#d6b656;" vertex="1" parent="1">
          <mxGeometry x="360" y="180" width="80" height="40" as="geometry" />
        </mxCell>
        <mxCell id="j6y0PCUKK9EX1xHPbR5D-10" style="edgeStyle=orthogonalEdgeStyle;rounded=0;orthogonalLoop=1;jettySize=auto;html=1;exitX=0;exitY=0.5;exitDx=0;exitDy=0;entryX=0.5;entryY=0;entryDx=0;entryDy=0;" edge="1" parent="1" source="j6y0PCUKK9EX1xHPbR5D-2" target="j6y0PCUKK9EX1xHPbR5D-3">
          <mxGeometry relative="1" as="geometry" />
        </mxCell>
        <mxCell id="j6y0PCUKK9EX1xHPbR5D-11" style="edgeStyle=orthogonalEdgeStyle;rounded=0;orthogonalLoop=1;jettySize=auto;html=1;exitX=1;exitY=0.5;exitDx=0;exitDy=0;entryX=0.5;entryY=0;entryDx=0;entryDy=0;" edge="1" parent="1" source="j6y0PCUKK9EX1xHPbR5D-2" target="j6y0PCUKK9EX1xHPbR5D-4">
          <mxGeometry relative="1" as="geometry" />
        </mxCell>
        <mxCell id="j6y0PCUKK9EX1xHPbR5D-2" value="交换机" style="rounded=1;whiteSpace=wrap;html=1;fillColor=#dae8fc;strokeColor=#6c8ebf;" vertex="1" parent="1">
          <mxGeometry x="347.5" y="270" width="105" height="50" as="geometry" />
        </mxCell>
        <mxCell id="j6y0PCUKK9EX1xHPbR5D-3" value="网卡1" style="rounded=0;whiteSpace=wrap;html=1;fillColor=#d5e8d4;strokeColor=#82b366;" vertex="1" parent="1">
          <mxGeometry x="240" y="370" width="108" height="50" as="geometry" />
        </mxCell>
        <mxCell id="j6y0PCUKK9EX1xHPbR5D-4" value="网卡2" style="rounded=0;whiteSpace=wrap;html=1;fillColor=#d5e8d4;strokeColor=#82b366;" vertex="1" parent="1">
          <mxGeometry x="452.5" y="370" width="108" height="50" as="geometry" />
        </mxCell>
        <mxCell id="j6y0PCUKK9EX1xHPbR5D-13" value="d我" style="text;html=1;whiteSpace=wrap;overflow=hidden;rounded=0;align=center;" vertex="1" parent="1">
          <mxGeometry x="452.5" y="160" width="77.5" height="30" as="geometry" />
        </mxCell>
      </root>
    </mxGraphModel>
  </diagram>
</mxfile>
